<?xml version="1.0" encoding="UTF-8" standalone="no"?>
<svg
   xmlns:dc="http://purl.org/dc/elements/1.1/"
   xmlns:cc="http://creativecommons.org/ns#"
   xmlns:rdf="http://www.w3.org/1999/02/22-rdf-syntax-ns#"
   xmlns:svg="http://www.w3.org/2000/svg"
   xmlns="http://www.w3.org/2000/svg"
   xmlns:sodipodi="http://sodipodi.sourceforge.net/DTD/sodipodi-0.dtd"
   xmlns:inkscape="http://www.inkscape.org/namespaces/inkscape"
   version="1.1"
   width="50"
   height="24.999998"
   id="svg72"
   sodipodi:docname="ftruck.svg"
   inkscape:version="0.92.1 r15371">
  <metadata
     id="metadata78">
    <rdf:RDF>
      <cc:Work
         rdf:about="">
        <dc:format>image/svg+xml</dc:format>
        <dc:type
           rdf:resource="http://purl.org/dc/dcmitype/StillImage" />
        <dc:title></dc:title>
      </cc:Work>
    </rdf:RDF>
  </metadata>
  <defs
     id="defs76" />
  <sodipodi:namedview
     pagecolor="#ffffff"
     bordercolor="#666666"
     borderopacity="1"
     objecttolerance="10"
     gridtolerance="10"
     guidetolerance="10"
     inkscape:pageopacity="0"
     inkscape:pageshadow="2"
     inkscape:window-width="1323"
     inkscape:window-height="747"
     id="namedview74"
     showgrid="false"
     inkscape:zoom="0.8117387"
     inkscape:cx="628.04935"
     inkscape:cy="-66.080323"
     inkscape:window-x="43"
     inkscape:window-y="21"
     inkscape:window-maximized="1"
     inkscape:current-layer="svg72"
     fit-margin-top="0"
     fit-margin-left="0"
     fit-margin-right="0"
     fit-margin-bottom="0" />
  <!-- Created by MarianSigler, mariansigler@gmail.com -->
  <g
     id="g914"
     transform="matrix(0.05356713,0,0,0.05242834,-1.8075153,-0.63745956)">
    <path
       id="path64"
       d="M 295.78419,86.816926 V 335.08252 l 391.93206,0.32058 c -22.99976,18.79086 -37.35891,44.69108 -37.17122,78.68503 l -389.0657,-0.23146 C 257.75238,281.97351 70.642616,282.42223 66.576854,413.09434 38.473995,412.88466 34.575813,406.50199 34.30487,380.61469 l -2e-6,-99 C 33.952015,237.37253 28.42681,266.57731 61.177014,182.67997 94.875059,93.246445 85.585107,101.51291 116.0648,99.204795 Z m -77.84554,146.382734 1.55116,-105.4792 -100.05012,6.20466 c -18.23966,1.22192 -18.39146,1.33642 -24.81864,22.49189 l -25.594218,68.25124 c -8.59824,20.93425 -7.229702,27.1029 16.28723,24.04306 z m 748.69629,102.39108 0.19058,55.77718 -64.6075,22.86991 -56.72662,-0.0363 C 845.7223,381.859 832.28136,354.65708 808.44981,335.5489 Z"
       style="fill:#f59f08;fill-opacity:1;fill-rule:evenodd;stroke:none"
       inkscape:connector-curvature="0" />
    <rect
       id="rect66"
       style="fill:#f59f08;fill-opacity:1;stroke:none"
       width="631.32404"
       height="301.70154"
       y="12.158683"
       x="335.82718" />
    <circle
       id="circle68"
       style="fill:#f59f08;fill-opacity:1;stroke:none"
       cy="412"
       cx="164"
       r="77" />
    <circle
       id="circle70"
       style="fill:#f59f08;fill-opacity:1;stroke:none"
       cy="412"
       cx="748"
       r="77" />
    <text
       id="text887"
       y="223.95834"
       x="398.4375"
       style="font-style:normal;font-weight:normal;font-size:40px;line-height:125%;font-family:sans-serif;letter-spacing:0px;word-spacing:0px;fill:#000000;fill-opacity:1;stroke:none;stroke-width:1px;stroke-linecap:butt;stroke-linejoin:miter;stroke-opacity:1"
       xml:space="preserve"><tspan
         style="font-size:200px;fill:#ffffff;fill-opacity:0.94117647"
         y="223.95834"
         x="398.4375"
         id="tspan885"
         sodipodi:role="line">FREE</tspan></text>
  </g>
</svg>
