<?xml version="1.0" encoding="UTF-8" standalone="no"?>
<svg
   xmlns:dc="http://purl.org/dc/elements/1.1/"
   xmlns:cc="http://creativecommons.org/ns#"
   xmlns:rdf="http://www.w3.org/1999/02/22-rdf-syntax-ns#"
   xmlns:svg="http://www.w3.org/2000/svg"
   xmlns="http://www.w3.org/2000/svg"
   xmlns:sodipodi="http://sodipodi.sourceforge.net/DTD/sodipodi-0.dtd"
   xmlns:inkscape="http://www.inkscape.org/namespaces/inkscape"
   width="22"
   height="35"
   viewBox="0 0 5.8208334 9.2604168"
   version="1.1"
   id="logoicon"
   inkscape:version="0.92.1 r15371"
   sodipodi:docname="logoico.svg">
  <defs
     id="defs2" />
  <sodipodi:namedview
     id="base"
     pagecolor="#ffffff"
     bordercolor="#666666"
     borderopacity="1.0"
     inkscape:pageopacity="0.0"
     inkscape:pageshadow="2"
     inkscape:zoom="4"
     inkscape:cx="-9.8700973"
     inkscape:cy="36.220527"
     inkscape:document-units="mm"
     inkscape:current-layer="g21"
     showgrid="false"
     fit-margin-top="0"
     fit-margin-left="0"
     fit-margin-right="0"
     fit-margin-bottom="0"
     inkscape:window-width="1323"
     inkscape:window-height="747"
     inkscape:window-x="43"
     inkscape:window-y="21"
     inkscape:window-maximized="1"
     units="px" />
  <metadata
     id="metadata5">
    <rdf:RDF>
      <cc:Work
         rdf:about="">
        <dc:format>image/svg+xml</dc:format>
        <dc:type
           rdf:resource="http://purl.org/dc/dcmitype/StillImage" />
        <dc:title></dc:title>
      </cc:Work>
    </rdf:RDF>
  </metadata>
  <g
     inkscape:label="Layer 1"
     inkscape:groupmode="layer"
     id="layer1"
     transform="translate(-52.362026,-210.0104)">
    <g
       id="g21"
       transform="translate(-9.0714329,-4.5357146)">
      <path
         style="fill:#f37608;stroke-width:0.01238604"
         d="m 64.362557,223.67325 c -0.0039,-0.0103 -0.02121,-0.0805 -0.03851,-0.15606 -0.09923,-0.43304 -0.285634,-0.9916 -0.479156,-1.43577 -0.238037,-0.54634 -0.522187,-1.06312 -0.974781,-1.77285 -0.530311,-0.8316 -0.55449,-0.87135 -0.77014,-1.26626 -0.165738,-0.30351 -0.262662,-0.50804 -0.317668,-0.67036 -0.04976,-0.14684 -0.101495,-0.37297 -0.113828,-0.49754 -0.0054,-0.0545 -0.01172,-0.078 -0.01691,-0.063 -0.0045,0.0132 -0.01196,-0.0368 -0.01643,-0.11111 -0.0094,-0.15488 0.0031,-0.43768 0.01753,-0.40009 0.0069,0.0177 0.0096,0.0103 0.01027,-0.027 0.0022,-0.13136 0.07663,-0.46723 0.144924,-0.65397 0.194394,-0.5316 0.550726,-0.98771 1.029057,-1.31721 0.155876,-0.10739 0.452237,-0.25379 0.641289,-0.31681 0.165933,-0.0553 0.404323,-0.10864 0.544392,-0.12182 0.05593,-0.005 0.08245,-0.0119 0.06804,-0.017 -0.03781,-0.0135 0.259744,-0.0262 0.397799,-0.017 0.06926,0.005 0.120295,0.0119 0.113396,0.0163 -0.0069,0.004 0.04282,0.0146 0.110484,0.0229 0.356567,0.0434 0.765043,0.1835 1.063935,0.36514 0.574627,0.34918 1.020729,0.93491 1.196658,1.57123 0.04031,0.14582 0.08482,0.38768 0.08617,0.46837 6.28e-4,0.0374 0.0035,0.0447 0.01029,0.0269 0.01469,-0.0381 0.02695,0.23108 0.0176,0.38633 -0.005,0.084 -0.01183,0.12707 -0.01762,0.11203 -0.0072,-0.0188 -0.0096,-0.0144 -0.01031,0.0193 -0.0013,0.0594 -0.03378,0.24675 -0.064,0.3683 -0.04233,0.17025 -0.105777,0.32446 -0.279934,0.68043 -0.191175,0.39075 -0.324139,0.62026 -0.672668,1.16109 -0.40212,0.62401 -0.589406,0.93359 -0.794249,1.31292 -0.393739,0.72914 -0.668478,1.44174 -0.836769,2.17037 -0.02299,0.0996 -0.04498,0.17261 -0.04885,0.16231 z m 0.04988,-4.13307 c 0.03981,-0.015 1.679363,-1.67288 1.707325,-1.72638 0.04065,-0.0778 0.05685,-0.059 -0.835145,-0.96671 -0.565834,-0.57578 -0.849813,-0.85628 -0.875663,-0.86494 -0.02658,-0.009 -0.0491,-0.009 -0.07382,6.1e-4 -0.05182,0.0196 -1.697194,1.69326 -1.713288,1.74277 -0.0088,0.0269 -0.0086,0.0499 6e-4,0.0749 0.0166,0.0453 1.650695,1.71126 1.701689,1.7348 0.04539,0.021 0.04579,0.021 0.08829,0.005 z m -0.716636,-0.9598 c -0.042,-0.0105 -0.115073,-0.0587 -0.115073,-0.0758 0,-0.0171 0.07016,-0.0279 0.122727,-0.0189 0.0482,0.008 0.145054,0.0736 0.126448,0.0852 -0.02107,0.0132 -0.09757,0.0186 -0.134102,0.009 z m 1.261177,0.004 c -0.01014,-0.004 -0.02621,-0.009 -0.0357,-0.0124 -0.02376,-0.008 0.05275,-0.0641 0.111143,-0.0818 0.04767,-0.0145 0.133459,-0.005 0.133459,0.0149 0,0.0385 -0.157489,0.0983 -0.208896,0.0793 z m -1.100088,-0.0963 c -0.0084,-0.0571 0.0135,-0.13037 0.05185,-0.17342 0.02884,-0.0324 0.0385,-0.0278 0.04781,0.0226 0.0098,0.0529 -0.0093,0.12583 -0.04493,0.1719 -0.03518,0.0454 -0.0455,0.0415 -0.05472,-0.0211 z m 0.968606,0.002 c -0.02597,-0.0399 -0.03353,-0.0664 -0.03353,-0.11801 0,-0.0366 0.0044,-0.071 0.0098,-0.0764 0.01471,-0.015 0.06629,0.0523 0.08261,0.10762 0.01496,0.0507 0.0062,0.13836 -0.01382,0.13836 -0.0064,0 -0.02664,-0.0231 -0.04508,-0.0515 z m -0.576029,0.009 c -0.08666,-0.0383 -0.188974,-0.1721 -0.189389,-0.24759 -1.86e-4,-0.0317 0.04481,-0.0278 0.120366,0.0104 0.07493,0.0379 0.132599,0.10368 0.152347,0.17366 0.0077,0.0275 0.01933,0.057 0.02574,0.0655 0.01609,0.0216 -0.05878,0.0201 -0.109058,-0.002 z m 0.141137,-0.004 c 0.0063,-0.012 0.01812,-0.0403 0.02638,-0.063 0.02696,-0.0738 0.08079,-0.13542 0.14807,-0.16948 0.0696,-0.0353 0.121634,-0.0427 0.121524,-0.0172 -5.19e-4,0.11868 -0.150089,0.27047 -0.267299,0.27127 -0.0343,2.4e-4 -0.03841,-0.003 -0.02868,-0.0216 z m -0.852884,-0.135 c -0.08591,-0.0451 -0.08594,-0.0804 -9.2e-5,-0.0804 0.06425,0 0.113006,0.0171 0.150733,0.0531 0.02084,0.0198 0.02391,0.029 0.01228,0.0365 -0.02608,0.0168 -0.123959,0.0113 -0.162947,-0.009 z m 1.5071,0.009 c -0.01278,-0.009 -0.0059,-0.0197 0.02972,-0.0473 0.03909,-0.0302 0.05782,-0.0359 0.119893,-0.036 0.08692,-4e-5 0.09964,0.0168 0.04351,0.0573 -0.04275,0.0309 -0.162488,0.047 -0.193116,0.0259 z m -1.296634,-0.0462 c -0.02566,-0.0679 0.02065,-0.22438 0.06641,-0.22438 0.01218,0 0.01936,0.0163 0.02209,0.0499 0.0053,0.0658 -0.01512,0.1322 -0.05142,0.16686 -0.0258,0.0246 -0.03029,0.0255 -0.03707,0.008 z m 1.201029,-0.0256 c -0.02964,-0.0395 -0.03518,-0.0586 -0.03521,-0.12161 -3.6e-5,-0.0883 0.01647,-0.10124 0.05645,-0.0442 0.01938,0.0277 0.02994,0.0635 0.03353,0.1139 0.0069,0.0967 -0.0096,0.11219 -0.05477,0.0519 z m -1.522086,-0.14083 c -0.05886,-0.0272 -0.08778,-0.0576 -0.06706,-0.0706 0.0077,-0.005 0.04019,-0.009 0.0722,-0.009 0.06023,0 0.119513,0.0237 0.148572,0.0592 0.01418,0.0173 0.01405,0.0223 -9e-4,0.0318 -0.02849,0.0183 -0.09988,0.0129 -0.15281,-0.0115 z m 0.836695,0.004 c -0.101359,-0.0377 -0.179643,-0.13026 -0.198425,-0.23453 l -0.0087,-0.0482 0.04155,0.009 c 0.119822,0.0263 0.220586,0.12628 0.249162,0.24723 0.01245,0.0527 0.04485,0.0378 0.06411,-0.0293 0.02933,-0.10231 0.128678,-0.19423 0.235157,-0.21758 0.0363,-0.008 0.03994,-0.006 0.03994,0.021 0,0.0475 -0.05972,0.15624 -0.10794,0.19663 -0.08466,0.0709 -0.212922,0.0936 -0.31488,0.0556 z m 0.90284,0.008 c -0.04215,-0.0271 0.05893,-0.0907 0.146304,-0.092 0.07158,-9.8e-4 0.09389,0.0107 0.07162,0.0381 -0.04019,0.0494 -0.17363,0.0824 -0.217918,0.0539 z m -1.540386,-0.0788 c -0.0093,-0.0585 0.01289,-0.13742 0.04984,-0.17792 0.02979,-0.0326 0.03261,-0.0334 0.04116,-0.0113 0.0239,0.0619 0.0058,0.15075 -0.04121,0.20168 -0.03455,0.0374 -0.04223,0.0356 -0.04979,-0.0125 z m 1.437119,0 c -0.03555,-0.0481 -0.05002,-0.10742 -0.03884,-0.15919 0.01054,-0.0488 0.03503,-0.0476 0.06501,0.003 0.03196,0.054 0.04197,0.10161 0.03235,0.15369 -0.0099,0.0534 -0.02049,0.0538 -0.05852,0.002 z m -1.732313,-0.12693 c -0.0476,-0.0176 -0.09442,-0.0529 -0.09442,-0.071 0,-0.0186 0.08811,-0.0269 0.134689,-0.0127 0.05515,0.0169 0.11695,0.0633 0.102731,0.0771 -0.02046,0.0201 -0.09718,0.0237 -0.143002,0.007 z m 1.976101,0.009 c -0.04266,-0.0104 -0.04578,-0.0245 -0.0115,-0.0519 0.04614,-0.0368 0.117589,-0.0564 0.170058,-0.0463 0.05026,0.01 0.05418,0.0192 0.02043,0.0502 -0.04412,0.0406 -0.122946,0.0617 -0.178988,0.048 z m -1.792726,-0.0608 c -0.02269,-0.0601 0.0036,-0.16594 0.05203,-0.20981 0.02383,-0.0216 0.02668,-0.0218 0.0339,-0.003 0.01541,0.0408 -0.0023,0.15244 -0.03056,0.19279 -0.03086,0.044 -0.04436,0.0489 -0.05537,0.0197 z m 1.692572,0.01 c -0.03459,-0.0223 -0.06564,-0.0984 -0.06569,-0.16091 -2.4e-5,-0.0357 0.0047,-0.0678 0.01046,-0.0714 0.01428,-0.009 0.05863,0.0409 0.07469,0.084 0.02519,0.0676 0.01194,0.16861 -0.01946,0.14835 z m -0.957564,-0.10757 c -0.08666,-0.0383 -0.188974,-0.1721 -0.189389,-0.2476 -1.86e-4,-0.0317 0.04481,-0.0278 0.120366,0.0104 0.07493,0.0379 0.132599,0.10368 0.152347,0.17367 0.0077,0.0275 0.01933,0.057 0.02574,0.0655 0.01609,0.0216 -0.05878,0.0202 -0.109058,-0.002 z m 0.141137,-0.004 c 0.0063,-0.012 0.01812,-0.0403 0.02638,-0.063 0.02696,-0.0738 0.08079,-0.13542 0.14807,-0.16948 0.0696,-0.0353 0.121634,-0.0427 0.121524,-0.0172 -5.19e-4,0.11868 -0.150089,0.27047 -0.267299,0.27128 -0.0343,2.3e-4 -0.03841,-0.003 -0.02868,-0.0216 z m -1.039537,-0.0792 c -0.06391,-0.0413 -0.121881,-0.19861 -0.07319,-0.19861 0.04863,0 0.122065,0.11468 0.116155,0.18139 l -0.0038,0.0426 z m 1.999126,-0.01 c 0,-0.0548 0.02073,-0.10245 0.0646,-0.14866 0.04753,-0.05 0.07057,-0.0519 0.07057,-0.006 0,0.0534 -0.05041,0.14281 -0.09523,0.16893 l -0.03994,0.0233 z m -1.086369,-0.24633 c -0.101359,-0.0377 -0.179643,-0.13026 -0.198425,-0.23453 l -0.0087,-0.0482 0.04155,0.009 c 0.119822,0.0263 0.220586,0.12628 0.249162,0.24723 0.01245,0.0527 0.04485,0.0378 0.06411,-0.0293 0.02933,-0.1023 0.128678,-0.19422 0.235157,-0.21757 0.0363,-0.008 0.03994,-0.006 0.03994,0.021 0,0.0475 -0.05972,0.15624 -0.10794,0.19663 -0.08466,0.0709 -0.212922,0.0936 -0.31488,0.0556 z m 0.09409,-0.32057 c -0.06626,-0.0843 -0.07891,-0.23905 -0.02723,-0.3328 0.01668,-0.0302 0.03586,-0.055 0.04262,-0.055 0.0068,0 0.02611,0.0247 0.04301,0.055 0.04244,0.076 0.04331,0.2037 0.0019,0.2891 -0.0301,0.0622 -0.04014,0.0695 -0.06035,0.0437 z"
         id="path23"
         inkscape:connector-curvature="0" />
    </g>
  </g>
</svg>
