<?xml version="1.0" standalone="no"?>
<!DOCTYPE svg PUBLIC "-//W3C//DTD SVG 20010904//EN"
 "http://www.w3.org/TR/2001/REC-SVG-20010904/DTD/svg10.dtd">
<svg version="1.0" xmlns="http://www.w3.org/2000/svg"
 width="260.000000pt" height="260.000000pt" viewBox="0 0 260.000000 260.000000"
 preserveAspectRatio="xMidYMid meet">
<metadata>
Created by potrace 1.11, written by Peter Selinger 2001-2013
</metadata>
<g transform="translate(0.000000,260.000000) scale(0.100000,-0.100000)"
fill="#000000" stroke="none">
<path d="M1275 2589 c-31 -18 -1245 -1231 -1261 -1261 -13 -24 -13 -32 0 -56
14 -27 1214 -1231 1251 -1255 22 -14 41 -15 68 -3 15 7 1192 1179 1243 1238
18 21 25 69 12 84 -53 61 -1241 1240 -1260 1250 -32 16 -28 16 -53 3z m81
-615 c25 -60 20 -145 -13 -207 -15 -28 -35 -52 -42 -52 -8 0 -28 24 -43 54
-45 86 -37 189 22 264 l22 27 19 -24 c11 -14 27 -42 35 -62z m-215 -264 c56
-21 119 -79 137 -127 5 -15 13 -37 17 -48 7 -17 9 -15 17 15 22 85 108 161
196 175 40 7 42 6 42 -19 0 -66 -57 -152 -128 -193 -40 -24 -58 -28 -122 -28
-64 0 -82 4 -122 28 -70 41 -113 105 -125 185 -4 27 -2 32 16 32 11 0 44 -9
72 -20z m-627 -240 c43 -28 76 -87 76 -137 0 -49 -8 -52 -56 -23 -39 25 -74
92 -74 143 0 42 11 46 54 17z m1626 -9 c0 -77 -46 -152 -103 -166 -26 -7 -27
-6 -27 36 0 52 32 111 76 139 40 27 54 25 54 -9z m-988 -4 c75 -39 138 -115
138 -165 0 -37 15 -25 29 23 24 81 133 165 213 165 43 0 -3 -134 -63 -184
-154 -130 -384 -51 -415 142 l-7 43 41 -6 c23 -3 52 -11 64 -18z m-412 -103
c50 -130 -97 -267 -227 -212 -30 13 -83 57 -83 69 0 12 68 28 98 23 42 -7 92
-25 92 -32 0 -4 9 -13 21 -20 12 -8 18 -9 14 -3 -15 26 -15 92 1 123 18 37 53
78 66 78 5 0 13 -12 18 -26z m1178 -8 c33 -38 48 -97 37 -148 l-8 -33 26 26
c29 28 90 50 122 44 11 -2 27 -4 35 -4 8 -1 22 -6 30 -11 12 -7 11 -13 -10
-36 -112 -121 -322 -23 -296 139 11 69 20 72 64 23z m-1093 -137 c12 -38 8
-104 -8 -136 -10 -18 -34 -45 -54 -60 -31 -24 -46 -28 -98 -28 -49 0 -69 5
-98 25 -60 41 -60 64 3 75 46 8 111 -11 145 -42 l27 -26 -8 24 c-22 68 27 186
78 189 4 0 10 -9 13 -21z m297 7 c84 -25 152 -96 173 -181 l8 -30 9 39 c7 35
39 87 73 122 19 20 89 52 128 59 36 7 37 6 37 -21 -1 -38 -35 -112 -68 -147
-58 -62 -164 -91 -248 -68 -89 24 -168 111 -180 200 -7 47 -3 49 68 27z m708
-16 c33 -35 53 -111 39 -147 -14 -36 -12 -36 30 -3 28 23 51 32 85 35 46 4 96
-10 96 -26 0 -16 -55 -59 -89 -70 -128 -42 -254 78 -219 209 11 40 22 40 58 2z
m-95 -137 c45 -48 64 -119 44 -171 l-10 -27 23 22 c50 47 126 64 181 40 27
-12 27 -13 11 -36 -21 -29 -89 -60 -133 -61 -83 0 -159 70 -168 155 -5 37 10
105 23 105 2 0 15 -12 29 -27z m-821 -5 c24 -90 -17 -180 -98 -213 -67 -28
-137 -13 -190 40 -24 24 -26 29 -12 37 48 27 136 14 186 -28 l30 -26 -9 25
c-12 31 -8 85 9 118 17 33 51 69 66 69 6 0 14 -10 18 -22z m250 -110 c53 -27
104 -85 118 -133 14 -48 23 -62 25 -35 6 82 109 179 207 194 l38 6 -5 -37 c-9
-81 -74 -165 -155 -199 -49 -21 -166 -15 -207 11 -48 30 -86 68 -105 105 -22
43 -34 96 -25 110 9 14 57 4 109 -22z m-158 -80 c2 -25 -3 -56 -15 -83 -49
-110 -186 -136 -278 -52 -29 26 -29 31 2 45 52 24 130 7 174 -37 l21 -21 -6
44 c-8 56 9 108 48 147 28 27 32 29 41 14 5 -9 11 -35 13 -57z m690 -34 c3
-19 4 -50 2 -69 -2 -19 0 -35 4 -35 4 0 8 4 8 8 0 5 17 18 38 29 42 24 133 27
154 5 21 -22 -51 -79 -112 -87 -53 -7 -120 15 -152 51 -44 50 -55 133 -26 187
11 21 12 20 44 -17 19 -22 36 -54 40 -72z"/>
</g>
</svg>
