<?xml version="1.0" encoding="UTF-8" standalone="no"?>
<!-- Created with Inkscape (http://www.inkscape.org/) -->

<svg
   xmlns:dc="http://purl.org/dc/elements/1.1/"
   xmlns:cc="http://creativecommons.org/ns#"
   xmlns:rdf="http://www.w3.org/1999/02/22-rdf-syntax-ns#"
   xmlns:svg="http://www.w3.org/2000/svg"
   xmlns="http://www.w3.org/2000/svg"
   xmlns:sodipodi="http://sodipodi.sourceforge.net/DTD/sodipodi-0.dtd"
   xmlns:inkscape="http://www.inkscape.org/namespaces/inkscape"
   width="107.37572mm"
   height="68.359444mm"
   viewBox="0 0 107.37572 68.359444"
   version="1.1"
   id="svg8"
   inkscape:version="0.92.1 r15371"
   sodipodi:docname="ttop.svg">
  <defs
     id="defs2" />
  <sodipodi:namedview
     id="base"
     pagecolor="#ffffff"
     bordercolor="#666666"
     borderopacity="1.0"
     inkscape:pageopacity="0.0"
     inkscape:pageshadow="2"
     inkscape:zoom="0.35"
     inkscape:cx="-240.78609"
     inkscape:cy="303.28582"
     inkscape:document-units="mm"
     inkscape:current-layer="layer1"
     showgrid="false"
     fit-margin-top="0"
     fit-margin-left="0"
     fit-margin-right="0"
     fit-margin-bottom="0"
     inkscape:window-width="1323"
     inkscape:window-height="747"
     inkscape:window-x="43"
     inkscape:window-y="21"
     inkscape:window-maximized="1" />
  <metadata
     id="metadata5">
    <rdf:RDF>
      <cc:Work
         rdf:about="">
        <dc:format>image/svg+xml</dc:format>
        <dc:type
           rdf:resource="http://purl.org/dc/dcmitype/StillImage" />
        <dc:title></dc:title>
      </cc:Work>
    </rdf:RDF>
  </metadata>
  <g
     inkscape:label="Layer 1"
     inkscape:groupmode="layer"
     id="layer1"
     transform="translate(-46.502074,-70.003975)">
    <g
       id="g32"
       transform="translate(-6.0476189,18.89881)">
      <path
         style="fill:#fee7d7;stroke-width:0.26458332"
         d="m 75.962452,118.98593 c -0.191725,-0.35824 -2.143702,-12.31705 -2.143702,-13.13341 0,-0.0782 -1.403087,-0.84554 -3.117971,-1.70518 -4.204958,-2.10789 -7.545035,-4.389261 -10.3903,-7.096898 -2.919787,-2.778557 -4.519591,-4.865413 -5.838551,-7.616068 -1.486295,-3.099626 -1.940615,-5.070033 -1.921671,-8.334375 0.03093,-5.330396 2.140278,-9.742215 6.965332,-14.568396 8.012046,-8.013918 20.76767,-13.156854 37.454202,-15.101149 3.686249,-0.429518 15.029929,-0.434926 18.520829,-0.0088 10.05313,1.227072 18.68225,3.553479 25.78807,6.952451 7.57676,3.624244 13.8154,9.103044 16.55094,14.535109 1.57993,3.137306 2.11254,5.320189 2.09538,8.58769 -0.0135,2.568559 -0.11631,3.205657 -0.87539,5.423958 -1.22491,3.579617 -2.81597,5.981255 -6.23912,9.417658 -3.15405,3.166274 -6.41253,5.50338 -10.59696,7.60055 -6.97466,3.49559 -15.71549,6.00483 -25.20784,7.23643 -4.33618,0.5626 -17.1714,0.65661 -19.717401,0.14441 l -1.533572,-0.30852 -9.093629,4.22661 c -5.001493,2.32464 -9.397118,4.22661 -9.768053,4.22661 -0.379912,0 -0.786292,-0.20902 -0.930593,-0.47865 z"
         id="path46"
         inkscape:connector-curvature="0" />
      <path
         style="fill:#fecead;stroke-width:0.26458332"
         d="m 76.339948,119.03756 c -0.222493,-0.22249 -0.404532,-0.48354 -0.404532,-0.58012 0,-0.2592 -1.900268,-12.87727 -1.945662,-12.91949 -0.02129,-0.0198 -1.471565,-0.752 -3.222829,-1.6271 -4.188755,-2.0931 -7.549923,-4.368999 -10.307834,-6.979593 -2.792259,-2.643105 -4.413737,-4.767328 -5.72258,-7.496883 -1.486295,-3.099626 -1.940614,-5.070033 -1.921671,-8.334375 0.03061,-5.274371 2.149296,-9.749822 6.833741,-14.435387 7.871322,-7.873202 20.749523,-13.038662 37.32121,-14.969575 3.686249,-0.429517 15.029929,-0.434926 18.520829,-0.0088 10.05313,1.227073 18.68225,3.55348 25.78807,6.952452 7.55627,3.614442 13.57655,8.889571 16.28636,14.270525 1.57992,3.137306 2.11254,5.320189 2.09538,8.58769 -0.0135,2.568559 -0.11632,3.205657 -0.87539,5.423958 -1.20874,3.532359 -2.82371,5.987526 -6.10751,9.284956 -7.52041,7.551642 -19.91361,12.660522 -35.67183,14.705092 -4.33618,0.56261 -17.1714,0.65662 -19.717401,0.14442 l -1.533572,-0.30852 -9.049761,4.18908 c -4.977365,2.304 -9.254672,4.26045 -9.505122,4.34766 -0.25045,0.0872 -0.637404,-0.0235 -0.859896,-0.24596 z"
         id="path44"
         inkscape:connector-curvature="0" />
      <path
         style="fill:#feb685;stroke-width:0.26458332"
         d="m 76.366317,118.99047 c -0.07122,-0.11524 -0.557933,-3.06204 -1.081578,-6.54844 -0.523646,-3.4864 -1.007393,-6.5195 -1.074993,-6.74023 -0.0676,-0.22073 -1.522683,-1.09503 -3.233516,-1.94288 C 54.716892,95.701149 48.810749,82.957974 55.974694,71.391401 c 1.781035,-2.875575 5.642828,-6.661326 9.236118,-9.054249 8.213709,-5.469853 18.501894,-8.86018 31.494396,-10.378536 3.699042,-0.432285 15.546652,-0.437777 19.050002,-0.0088 15.94655,1.952476 28.28193,6.722816 36.05324,13.942512 2.72108,2.527942 4.33235,4.661387 5.79048,7.667077 1.5036,3.099408 2.03845,5.618406 1.86176,8.768442 -0.277,4.938353 -2.45218,9.261306 -6.91618,13.745226 -10.45366,10.500317 -31.65537,16.498467 -52.817046,14.942417 l -4.386077,-0.32251 -9.151541,4.25352 c -5.033346,2.33941 -9.273601,4.2535 -9.422787,4.2535 -0.149185,0 -0.329519,-0.0943 -0.400742,-0.20953 z"
         id="path42"
         inkscape:connector-curvature="0" />
      <path
         style="fill:#fea96f;stroke-width:0.26458332"
         d="m 76.366317,118.72589 c -0.07122,-0.11524 -0.556681,-3.06204 -1.078797,-6.54844 -0.522116,-3.4864 -1.000063,-6.48031 -1.062105,-6.65313 -0.06204,-0.17282 -1.779267,-1.15979 -3.816057,-2.19328 C 62.500445,99.317995 57.845524,95.04395 54.986144,89.16979 52.604751,84.277584 52.364254,79.918806 54.211433,75.128911 56.667426,68.76031 62.131882,63.575668 71.040625,59.16148 81.517529,53.970284 92.548704,51.616351 106.3625,51.624173 c 6.29291,0.0036 8.9063,0.196969 14.41979,1.067149 12.06404,1.904034 23.46904,6.701472 30.67357,12.902639 4.6215,3.977876 8.0787,10.726751 8.0787,15.770621 0,6.061025 -4.00657,12.901797 -10.30164,17.588896 -8.06854,6.007562 -18.83074,9.920122 -32.1548,11.689742 -4.22598,0.56127 -17.281502,0.65011 -19.878398,0.13526 l -1.622155,-0.3216 -9.112996,4.23927 c -5.01215,2.33159 -9.305544,4.23926 -9.540878,4.23926 -0.235334,0 -0.486153,-0.0943 -0.557376,-0.20952 z"
         id="path40"
         inkscape:connector-curvature="0" />
      <path
         style="fill:#fe944b;stroke-width:0.26458332"
         d="m 76.605495,118.68478 c -0.0852,-0.13785 -0.571997,-3.02512 -1.08178,-6.41615 -0.509783,-3.39103 -0.992105,-6.37763 -1.071826,-6.6369 -0.08526,-0.27729 -1.529041,-1.16496 -3.506205,-2.15572 C 62.848629,99.418566 57.947497,94.98625 55.126263,89.16979 49.730271,78.045019 56.018085,66.504356 71.560812,59.005794 81.616528,54.15443 92.738403,51.879335 106.3625,51.886746 c 8.25328,0.0045 13.43821,0.571285 20.5687,2.248488 12.35176,2.905328 22.97185,8.743873 28.00089,15.39388 1.68872,2.233034 3.46719,5.986092 3.97856,8.395885 1.99934,9.421508 -4.46764,19.089827 -16.96169,25.358231 -11.60172,5.82072 -27.17062,8.57436 -42.221496,7.46765 l -4.386077,-0.32252 -9.151541,4.25353 c -5.033346,2.33944 -9.21407,4.25352 -9.290495,4.25352 -0.07643,0 -0.20866,-0.11278 -0.293856,-0.25063 z"
         id="path38"
         inkscape:connector-curvature="0" />
      <path
         style="fill:#fe8635;stroke-width:0.26458332"
         d="M 76.630901,118.4613 C 76.508906,118.26391 74.6125,106.0442 74.6125,105.4555 c 0,-0.15105 -1.521786,-1.0372 -3.381745,-1.96923 C 60.943164,98.331152 54.940973,91.749509 53.566694,84.116921 c -0.38567,-2.141969 -0.411634,-2.885493 -0.16232,-4.648441 0.666534,-4.713204 2.644575,-8.407954 6.641851,-12.406206 7.801198,-7.803101 20.603116,-12.910693 37.18815,-14.836986 3.678595,-0.427257 14.508355,-0.432571 17.991665,-0.0088 16.19755,1.970414 28.52777,6.703312 36.31782,13.940422 1.17954,1.095812 2.70501,2.73341 3.38995,3.639107 2.46737,3.262629 4.34536,8.262378 4.34536,11.568595 0,1.527157 -0.73253,4.886915 -1.451,6.655096 -1.01792,2.505115 -2.98166,5.252231 -5.6599,7.917738 -7.40095,7.365784 -19.63087,12.360544 -35.35473,14.439074 -4.31653,0.5706 -16.45851,0.65572 -19.329261,0.1355 l -1.86676,-0.33827 -9.132972,4.24855 c -5.023136,2.33671 -9.265989,4.24856 -9.428563,4.24856 -0.162573,0 -0.353861,-0.0943 -0.425083,-0.20953 z"
         id="path36"
         inkscape:connector-curvature="0" />
      <path
         style="fill:#fe7e26;stroke-width:0.26458332"
         d="m 76.336749,115.67924 c -0.24492,-1.62885 -0.703305,-4.68794 -1.018634,-6.79799 l -0.573324,-3.83646 -3.836458,-1.98815 C 62.702362,98.804103 58.201162,94.699158 55.390847,88.905207 50.114731,78.02758 56.386092,66.719043 71.825395,59.270377 81.805221,54.455628 93.014297,52.145781 106.3625,52.15334 c 7.99336,0.0045 13.24109,0.585142 20.30412,2.246477 12.35175,2.905328 22.97185,8.743873 28.00088,15.39388 1.68888,2.233233 3.46726,5.986276 3.97842,8.395885 1.91784,9.040892 -4.64692,18.650677 -16.96155,24.829068 -7.00842,3.5162 -14.99303,5.81863 -24.60625,7.09541 -4.22405,0.56101 -17.281597,0.6501 -19.876432,0.13561 l -1.620187,-0.32124 -8.037105,3.74429 c -4.420407,2.05935 -8.650282,4.01963 -9.399722,4.35617 l -1.362616,0.61188 z"
         id="path34"
         inkscape:connector-curvature="0" />
    </g>
    <text
       xml:space="preserve"
       style="font-style:normal;font-weight:normal;font-size:10.58333302px;line-height:125%;font-family:sans-serif;letter-spacing:0px;word-spacing:0px;fill:#000000;fill-opacity:1;stroke:none;stroke-width:0.26458332px;stroke-linecap:butt;stroke-linejoin:miter;stroke-opacity:1"
       x="67.669167"
       y="108.88128"
       id="text17"><tspan
         sodipodi:role="line"
         id="tspan15"
         x="67.669167"
         y="108.88128"
         style="font-style:normal;font-variant:normal;font-weight:bold;font-stretch:normal;font-size:28.22222328px;font-family:sans-serif;-inkscape-font-specification:'sans-serif Bold';fill:#ffffff;stroke-width:0.26458332px">ТОП</tspan></text>
  </g>
</svg>
